<svg xmlns="http://www.w3.org/2000/svg" viewBox="0 0 24 24" width="24" height="24" color="#ffffff" fill="none">
    <defs />
    <path fill="currentColor" d="M11.127,20.5 L10.715,20.494 L10.587,20.493 C10.104,20.487 9.542,20.481 9.21,20.472 C5.969,20.392 4.182,20.347 2.839,18.997 C1.495,17.647 1.458,15.906 1.391,12.747 C1.37,11.757 1.37,10.752 1.391,9.762 C1.458,6.602 1.495,4.86 2.84,3.511 C4.182,2.164 5.967,2.118 9.207,2.037 C11.177,1.987 13.089,1.987 15.055,2.037 C18.299,2.118 20.083,2.164 21.427,3.513 C22.771,4.861 22.808,6.602 22.875,9.762 L22.875,10.75 C22.875,11.165 22.539,11.5 22.125,11.5 C21.711,11.5 21.375,11.165 21.375,10.75 L21.375,9.786 C21.313,6.839 21.283,5.493 20.363,4.57 C19.445,3.648 18.061,3.614 15.029,3.538 L15.022,3.537 C13.077,3.489 11.19,3.489 9.25,3.537 C6.209,3.614 4.823,3.648 3.903,4.57 C2.983,5.494 2.954,6.841 2.891,9.794 C2.87,10.764 2.87,11.747 2.891,12.715 L2.891,12.723 C2.954,15.671 2.983,17.016 3.902,17.94 C4.821,18.862 6.205,18.897 9.237,18.974 L9.249,18.975 C9.601,18.983 10.255,18.992 10.733,18.997 L11.137,19.001 C11.551,19.007 11.883,19.347 11.877,19.761 C11.872,20.173 11.537,20.501 11.127,20.501 Z M13.761,21.634 C13.458,21.333 13.331,20.904 13.42,20.487 L13.897,18.26 C14.002,17.716 14.263,17.222 14.654,16.831 L18.329,13.157 C19.207,12.281 20.633,12.281 21.51,13.157 L22.204,13.85 C23.08,14.727 23.081,16.154 22.204,17.031 L18.579,20.723 C18.183,21.119 17.69,21.38 17.145,21.484 L14.907,21.971 C14.818,21.99 14.728,22 14.64,22 L14.642,21.999 C14.315,21.999 13.999,21.871 13.761,21.634 Z M12.126,11.005 C11.396,11.004 10.667,10.714 9.686,10.135 L6.744,8.396 C6.387,8.185 6.269,7.725 6.48,7.369 C6.691,7.012 7.151,6.894 7.507,7.105 L10.45,8.844 C11.923,9.716 12.33,9.715 13.802,8.844 L16.745,7.105 C17.101,6.894 17.562,7.012 17.772,7.369 C17.983,7.726 17.865,8.186 17.508,8.396 L14.566,10.135 C13.586,10.714 12.856,11.004 12.126,11.005 Z M19.389,14.218 L15.715,17.892 C15.536,18.071 15.417,18.297 15.37,18.548 C15.369,18.554 15.368,18.56 15.366,18.566 L14.969,20.423 L16.838,20.016 C16.844,20.014 16.851,20.013 16.858,20.012 L16.86,20.012 C17.109,19.966 17.336,19.847 17.514,19.668 L21.138,15.977 C21.435,15.68 21.435,15.204 21.143,14.912 L20.45,14.219 C20.304,14.073 20.112,14 19.919,14 L19.92,13.999 C19.728,13.999 19.536,14.072 19.389,14.218 Z" />
</svg>